ISO-10303-21;
HEADER;
FILE_DESCRIPTION (( 'STEP AP203' ),
    '1' );
FILE_NAME ('SUPPORT DU CAPTEUR  COULEUR1.STEP',
    '2026-05-21T09:17:27',
    ( '' ),
    ( '' ),
    'SwSTEP 2.0',
    'SolidWorks 2025',
    '' );
FILE_SCHEMA (( 'CONFIG_CONTROL_DESIGN' ));
ENDSEC;

DATA;
#1 = EDGE_CURVE ( 'NONE', #157, #602, #590, .T. ) ;
#2 = FACE_OUTER_BOUND ( 'NONE', #106, .T. ) ;
#3 = CARTESIAN_POINT ( 'NONE',  ( 10.50000000000000178, -10.00000000000000000, 0.000000000000000000 ) ) ;
#4 = CIRCLE ( 'NONE', #292, 2.000000000000001776 ) ;
#5 = ORIENTED_EDGE ( 'NONE', *, *, #596, .T. ) ;
#6 = EDGE_CURVE ( 'NONE', #763, #116, #396, .T. ) ;
#7 = CARTESIAN_POINT ( 'NONE',  ( 21.00000000000000000, -9.000000000000001776, 25.99999999999999645 ) ) ;
#8 = DIRECTION ( 'NONE',  ( 1.000000000000000000, 0.000000000000000000, 0.000000000000000000 ) ) ;
#9 = VECTOR ( 'NONE', #598, 1000.000000000000000 ) ;
#10 = APPLICATION_PROTOCOL_DEFINITION ( 'international standard', 'config_control_design', 1994, #726 ) ;
#11 = DIRECTION ( 'NONE',  ( 0.000000000000000000, 0.000000000000000000, -1.000000000000000000 ) ) ;
#12 = PRODUCT_DEFINITION ( 'UNKNOWN', '', #737, #707 ) ;
#13 = DIRECTION ( 'NONE',  ( 1.000000000000000000, 0.000000000000000000, 0.000000000000000000 ) ) ;
#14 = VECTOR ( 'NONE', #654, 1000.000000000000000 ) ;
#15 = PLANE ( 'NONE',  #338 ) ;
#16 = CARTESIAN_POINT ( 'NONE',  ( 21.00000000000000000, -12.00000000000000178, 2.000000000000000000 ) ) ;
#17 = PERSON_AND_ORGANIZATION ( #55, #137 ) ;
#18 = CIRCLE ( 'NONE', #592, 1.500000000000001332 ) ;
#19 = PLANE ( 'NONE',  #672 ) ;
#20 = ORIENTED_EDGE ( 'NONE', *, *, #295, .F. ) ;
#21 = APPROVAL_ROLE ( '' ) ;
#22 = CC_DESIGN_PERSON_AND_ORGANIZATION_ASSIGNMENT ( #74, #599, ( #12 ) ) ;
#23 = DIRECTION ( 'NONE',  ( 0.000000000000000000, 0.000000000000000000, 1.000000000000000000 ) ) ;
#24 = CARTESIAN_POINT ( 'NONE',  ( -21.00000000000000000, -12.00000000000000178, 2.000000000000000000 ) ) ;
#25 = VECTOR ( 'NONE', #399, 1000.000000000000000 ) ;
#26 = CARTESIAN_POINT ( 'NONE',  ( -21.00000000000000000, -12.00000000000000178, 0.000000000000000000 ) ) ;
#27 = LINE ( 'NONE', #434, #709 ) ;
#28 = CARTESIAN_POINT ( 'NONE',  ( -21.00000000000000000, 11.99999999999999822, 2.000000000000000000 ) ) ;
#29 = CARTESIAN_POINT ( 'NONE',  ( 9.000000000000001776, -10.00000000000000000, 2.000000000000000000 ) ) ;
#30 = VECTOR ( 'NONE', #697, 1000.000000000000000 ) ;
#31 = CARTESIAN_POINT ( 'NONE',  ( -18.00000000000000355, -5.000000000000001776, 45.00000000000000000 ) ) ;
#32 = DIRECTION ( 'NONE',  ( -0.000000000000000000, -1.000000000000000000, -0.000000000000000000 ) ) ;
#33 = CC_DESIGN_PERSON_AND_ORGANIZATION_ASSIGNMENT ( #79, #548, ( #415 ) ) ;
#34 = ORIENTED_EDGE ( 'NONE', *, *, #747, .T. ) ;
#35 = DIRECTION ( 'NONE',  ( -1.000000000000000000, 0.000000000000000000, 0.000000000000000000 ) ) ;
#36 = EDGE_LOOP ( 'NONE', ( #637, #722 ) ) ;
#37 = LINE ( 'NONE', #339, #729 ) ;
#38 = DIRECTION ( 'NONE',  ( -0.000000000000000000, -0.000000000000000000, -1.000000000000000000 ) ) ;
#39 = ORIENTED_EDGE ( 'NONE', *, *, #601, .F. ) ;
#40 = ORIENTED_EDGE ( 'NONE', *, *, #625, .F. ) ;
#41 = EDGE_CURVE ( 'NONE', #102, #112, #698, .T. ) ;
#42 = LINE ( 'NONE', #47, #406 ) ;
#43 = CLOSED_SHELL ( 'NONE', ( #543, #413, #191, #607, #510, #721, #133, #494, #552, #244, #444, #248, #468, #324, #574, #70, #498, #229, #178, #196, #713 ) ) ;
#44 = AXIS2_PLACEMENT_3D ( 'NONE', #200, #35, #621 ) ;
#45 = DIRECTION ( 'NONE',  ( -1.000000000000000000, 0.000000000000000000, 0.000000000000000000 ) ) ;
#46 = VERTEX_POINT ( 'NONE', #428 ) ;
#47 = CARTESIAN_POINT ( 'NONE',  ( -6.500000000000000888, 11.99999999999999822, 0.000000000000000000 ) ) ;
#48 = CARTESIAN_POINT ( 'NONE',  ( -21.00000000000000000, -12.00000000000000178, 2.000000000000000000 ) ) ;
#49 = CC_DESIGN_APPROVAL ( #348, ( #12 ) ) ;
#50 = ORIENTED_EDGE ( 'NONE', *, *, #187, .T. ) ;
#51 = DIRECTION ( 'NONE',  ( 0.000000000000000000, 0.000000000000000000, 1.000000000000000000 ) ) ;
#52 = DIRECTION ( 'NONE',  ( 0.000000000000000000, 1.000000000000000000, 0.000000000000000000 ) ) ;
#53 = EDGE_CURVE ( 'NONE', #57, #429, #530, .T. ) ;
#54 = VERTEX_POINT ( 'NONE', #243 ) ;
#55 = PERSON ( 'UNSPECIFIED', 'UNSPECIFIED', 'UNSPECIFIED', ('UNSPECIFIED'), ('UNSPECIFIED'), ('UNSPECIFIED') ) ;
#56 = DIRECTION ( 'NONE',  ( 0.000000000000000000, -0.000000000000000000, -1.000000000000000000 ) ) ;
#57 = VERTEX_POINT ( 'NONE', #246 ) ;
#58 = EDGE_CURVE ( 'NONE', #587, #205, #485, .T. ) ;
#59 = ORIENTED_EDGE ( 'NONE', *, *, #436, .F. ) ;
#60 = VERTEX_POINT ( 'NONE', #76 ) ;
#61 = AXIS2_PLACEMENT_3D ( 'NONE', #520, #110, #761 ) ;
#62 = DIRECTION ( 'NONE',  ( -1.000000000000000000, 0.000000000000000000, 0.000000000000000000 ) ) ;
#63 = CARTESIAN_POINT ( 'NONE',  ( -21.00000000000000000, -5.000000000000001776, 45.00000000000000000 ) ) ;
#64 = EDGE_CURVE ( 'NONE', #116, #763, #108, .T. ) ;
#65 = FACE_BOUND ( 'NONE', #712, .T. ) ;
#66 = EDGE_LOOP ( 'NONE', ( #163, #304, #671, #513 ) ) ;
#67 = DIRECTION ( 'NONE',  ( -1.000000000000000000, -0.000000000000000000, -0.000000000000000000 ) ) ;
#68 = VECTOR ( 'NONE', #276, 1000.000000000000000 ) ;
#69 = COORDINATED_UNIVERSAL_TIME_OFFSET ( 1, 0, .AHEAD. ) ;
#70 = ADVANCED_FACE ( 'NONE', ( #294 ), #78, .F. ) ;
#71 = CARTESIAN_POINT ( 'NONE',  ( -21.00000000000000000, -9.000000000000001776, 25.99999999999999645 ) ) ;
#72 = LINE ( 'NONE', #24, #524 ) ;
#73 = AXIS2_PLACEMENT_3D ( 'NONE', #546, #663, #179 ) ;
#74 = PERSON_AND_ORGANIZATION ( #55, #137 ) ;
#75 = CARTESIAN_POINT ( 'NONE',  ( 9.000000000000001776, -10.00000000000000000, 0.000000000000000000 ) ) ;
#76 = CARTESIAN_POINT ( 'NONE',  ( -11.50000000000000178, 11.99999999999999822, 2.000000000000000000 ) ) ;
#77 = FACE_OUTER_BOUND ( 'NONE', #644, .T. ) ;
#78 = CYLINDRICAL_SURFACE ( 'NONE', #73, 2.500000000000000444 ) ;
#79 = PERSON_AND_ORGANIZATION ( #55, #137 ) ;
#80 = LINE ( 'NONE', #307, #91 ) ;
#81 = CARTESIAN_POINT ( 'NONE',  ( -21.00000000000000000, 11.99999999999999822, 2.000000000000000000 ) ) ;
#82 = ORIENTED_EDGE ( 'NONE', *, *, #522, .T. ) ;
#83 = PERSON_AND_ORGANIZATION_ROLE ( 'design_owner' ) ;
#84 = AXIS2_PLACEMENT_3D ( 'NONE', #101, #461, #525 ) ;
#85 = DIRECTION ( 'NONE',  ( -0.000000000000000000, 0.000000000000000000, 1.000000000000000000 ) ) ;
#86 = ORIENTED_EDGE ( 'NONE', *, *, #634, .T. ) ;
#87 = VECTOR ( 'NONE', #609, 1000.000000000000000 ) ;
#88 = LOCAL_TIME ( 11, 17, 27.00000000000000000, #488 ) ;
#89 = DIRECTION ( 'NONE',  ( 1.000000000000000000, 0.000000000000000000, 0.000000000000000000 ) ) ;
#90 = DIRECTION ( 'NONE',  ( 0.000000000000000000, 0.000000000000000000, 1.000000000000000000 ) ) ;
#91 = VECTOR ( 'NONE', #249, 1000.000000000000000 ) ;
#92 = CC_DESIGN_DATE_AND_TIME_ASSIGNMENT ( #198, #486, ( #415 ) ) ;
#93 = DIRECTION ( 'NONE',  ( -1.000000000000000000, 0.000000000000000000, 0.000000000000000000 ) ) ;
#94 = CARTESIAN_POINT ( 'NONE',  ( -11.50000000000000178, -12.00000000000000178, 2.000000000000000000 ) ) ;
#95 = ORIENTED_EDGE ( 'NONE', *, *, #277, .T. ) ;
#96 = AXIS2_PLACEMENT_3D ( 'NONE', #700, #45, #273 ) ;
#97 = DIRECTION ( 'NONE',  ( 1.000000000000000000, 0.000000000000000000, 0.000000000000000000 ) ) ;
#98 = LINE ( 'NONE', #497, #320 ) ;
#99 = EDGE_CURVE ( 'NONE', #568, #395, #349, .T. ) ;
#100 = DIRECTION ( 'NONE',  ( 1.000000000000000000, 0.000000000000000000, 0.000000000000000000 ) ) ;
#101 = CARTESIAN_POINT ( 'NONE',  ( 9.000000000000001776, -10.00000000000000000, 2.000000000000000000 ) ) ;
#102 = VERTEX_POINT ( 'NONE', #3 ) ;
#103 = EDGE_CURVE ( 'NONE', #626, #57, #647, .T. ) ;
#104 = DIRECTION ( 'NONE',  ( 0.000000000000000000, -1.000000000000000000, 0.000000000000000000 ) ) ;
#105 = DIRECTION ( 'NONE',  ( -0.000000000000000000, -0.000000000000000000, 1.000000000000000000 ) ) ;
#106 = EDGE_LOOP ( 'NONE', ( #181, #457, #388, #264 ) ) ;
#107 = ORIENTED_EDGE ( 'NONE', *, *, #360, .T. ) ;
#108 = CIRCLE ( 'NONE', #535, 1.500000000000001332 ) ;
#109 = AXIS2_PLACEMENT_3D ( 'NONE', #353, #533, #8 ) ;
#110 = DIRECTION ( 'NONE',  ( -1.000000000000000000, 0.000000000000000000, 0.000000000000000000 ) ) ;
#111 = UNCERTAINTY_MEASURE_WITH_UNIT (LENGTH_MEASURE( 1.000000000000000082E-05 ), #335, 'distance_accuracy_value', 'NONE');
#112 = VERTEX_POINT ( 'NONE', #412 ) ;
#113 = DIRECTION ( 'NONE',  ( -1.000000000000000000, 0.000000000000000000, 0.000000000000000000 ) ) ;
#114 = FACE_OUTER_BOUND ( 'NONE', #131, .T. ) ;
#115 = ORIENTED_EDGE ( 'NONE', *, *, #676, .T. ) ;
#116 = VERTEX_POINT ( 'NONE', #124 ) ;
#117 = LINE ( 'NONE', #579, #645 ) ;
#118 = EDGE_LOOP ( 'NONE', ( #746, #390, #523, #394, #284, #50, #40, #606, #265, #154 ) ) ;
#119 = EDGE_LOOP ( 'NONE', ( #585, #274, #563, #227 ) ) ;
#120 = CARTESIAN_POINT ( 'NONE',  ( 10.50000000000000178, -10.00000000000000000, 2.000000000000000000 ) ) ;
#121 = ORIENTED_EDGE ( 'NONE', *, *, #344, .F. ) ;
#122 = EDGE_CURVE ( 'NONE', #756, #253, #622, .T. ) ;
#123 = CARTESIAN_POINT ( 'NONE',  ( 21.00000000000000000, -9.000000000000001776, 37.00000000000000000 ) ) ;
#124 = CARTESIAN_POINT ( 'NONE',  ( 7.500000000000000000, 10.00000000000000000, 2.000000000000000000 ) ) ;
#125 = EDGE_CURVE ( 'NONE', #159, #602, #237, .T. ) ;
#126 = DIRECTION ( 'NONE',  ( -1.000000000000000000, 0.000000000000000000, -0.000000000000000000 ) ) ;
#127 = VERTEX_POINT ( 'NONE', #733 ) ;
#128 = VECTOR ( 'NONE', #354, 1000.000000000000000 ) ;
#129 = SHAPE_DEFINITION_REPRESENTATION ( #361, #226 ) ;
#130 = DIRECTION ( 'NONE',  ( -0.000000000000000000, 1.000000000000000000, -0.000000000000000000 ) ) ;
#131 = EDGE_LOOP ( 'NONE', ( #699, #401, #487, #218 ) ) ;
#132 = CIRCLE ( 'NONE', #764, 2.000000000000001776 ) ;
#133 = ADVANCED_FACE ( 'NONE', ( #263 ), #323, .F. ) ;
#134 = CARTESIAN_POINT ( 'NONE',  ( 0.000000000000000000, 0.000000000000000000, 0.000000000000000000 ) ) ;
#135 = ORIENTED_EDGE ( 'NONE', *, *, #379, .F. ) ;
#136 = DATE_AND_TIME ( #239, #702 ) ;
#137 = ORGANIZATION ( 'UNSPECIFIED', 'UNSPECIFIED', '' ) ;
#138 = CARTESIAN_POINT ( 'NONE',  ( -9.000000000000001776, 11.99999999999999822, 0.000000000000000000 ) ) ;
#139 = PRODUCT_RELATED_PRODUCT_CATEGORY ( 'detail', '', ( #326 ) ) ;
#140 = CARTESIAN_POINT ( 'NONE',  ( -21.00000000000000000, 11.99999999999999822, 2.000000000000000000 ) ) ;
#141 = APPLICATION_PROTOCOL_DEFINITION ( 'international standard', 'config_control_design', 1994, #742 ) ;
#142 = CARTESIAN_POINT ( 'NONE',  ( -21.00000000000000000, -9.000000000000001776, 30.00000000000000000 ) ) ;
#143 = LINE ( 'NONE', #738, #271 ) ;
#144 = CALENDAR_DATE ( 2026, 21, 5 ) ;
#145 = CARTESIAN_POINT ( 'NONE',  ( -21.00000000000000000, -12.00000000000000178, 45.00000000000000000 ) ) ;
#146 = CARTESIAN_POINT ( 'NONE',  ( 7.500000000000000000, 10.00000000000000000, 2.000000000000000000 ) ) ;
#147 = VECTOR ( 'NONE', #589, 1000.000000000000000 ) ;
#148 = EDGE_CURVE ( 'NONE', #602, #587, #150, .T. ) ;
#149 = CARTESIAN_POINT ( 'NONE',  ( -21.00000000000000000, -12.00000000000000178, 0.000000000000000000 ) ) ;
#150 = LINE ( 'NONE', #618, #190 ) ;
#151 = ORIENTED_EDGE ( 'NONE', *, *, #260, .T. ) ;
#152 = CARTESIAN_POINT ( 'NONE',  ( 9.000000000000001776, 10.00000000000000000, 2.000000000000000000 ) ) ;
#153 = CARTESIAN_POINT ( 'NONE',  ( -18.00000000000000000, -9.000000000000001776, 27.99999999999999645 ) ) ;
#154 = ORIENTED_EDGE ( 'NONE', *, *, #372, .F. ) ;
#155 =( NAMED_UNIT ( * ) PLANE_ANGLE_UNIT ( ) SI_UNIT ( $, .RADIAN. ) );
#156 = DIRECTION ( 'NONE',  ( 0.000000000000000000, 0.000000000000000000, 1.000000000000000000 ) ) ;
#157 = VERTEX_POINT ( 'NONE', #308 ) ;
#158 = DIRECTION ( 'NONE',  ( 0.000000000000000000, 0.000000000000000000, -1.000000000000000000 ) ) ;
#159 = VERTEX_POINT ( 'NONE', #140 ) ;
#160 = DIRECTION ( 'NONE',  ( -1.000000000000000000, 0.000000000000000000, 0.000000000000000000 ) ) ;
#161 = CARTESIAN_POINT ( 'NONE',  ( -9.000000000000001776, -12.00000000000000178, 0.000000000000000000 ) ) ;
#162 = ORIENTED_EDGE ( 'NONE', *, *, #676, .F. ) ;
#163 = ORIENTED_EDGE ( 'NONE', *, *, #601, .T. ) ;
#164 = EDGE_CURVE ( 'NONE', #527, #46, #132, .T. ) ;
#165 = CYLINDRICAL_SURFACE ( 'NONE', #392, 2.000000000000001776 ) ;
#166 = AXIS2_PLACEMENT_3D ( 'NONE', #558, #255, #56 ) ;
#167 = DIRECTION ( 'NONE',  ( -1.000000000000000000, 0.000000000000000000, 0.000000000000000000 ) ) ;
#168 = ORIENTED_EDGE ( 'NONE', *, *, #694, .T. ) ;
#169 = ORIENTED_EDGE ( 'NONE', *, *, #449, .T. ) ;
#170 = EDGE_CURVE ( 'NONE', #212, #695, #475, .T. ) ;
#171 = CARTESIAN_POINT ( 'NONE',  ( -21.00000000000000000, -5.000000000000001776, 45.00000000000000000 ) ) ;
#172 = ORIENTED_EDGE ( 'NONE', *, *, #528, .F. ) ;
#173 = VERTEX_POINT ( 'NONE', #94 ) ;
#174 = EDGE_CURVE ( 'NONE', #675, #504, #657, .T. ) ;
#175 = FACE_BOUND ( 'NONE', #463, .T. ) ;
#176 = ORIENTED_EDGE ( 'NONE', *, *, #58, .F. ) ;
#177 = DIRECTION ( 'NONE',  ( -1.000000000000000000, -0.000000000000000000, -0.000000000000000000 ) ) ;
#178 = ADVANCED_FACE ( 'NONE', ( #503 ), #375, .T. ) ;
#179 = DIRECTION ( 'NONE',  ( 1.000000000000000000, 0.000000000000000000, 0.000000000000000000 ) ) ;
#180 = FACE_BOUND ( 'NONE', #508, .T. ) ;
#181 = ORIENTED_EDGE ( 'NONE', *, *, #753, .F. ) ;
#182 = APPROVAL_STATUS ( 'not_yet_approved' ) ;
#183 = CARTESIAN_POINT ( 'NONE',  ( -18.00000000000000355, -5.000000000000001776, 45.00000000000000000 ) ) ;
#184 = CARTESIAN_POINT ( 'NONE',  ( 9.000000000000001776, -10.00000000000000000, 0.000000000000000000 ) ) ;
#185 = AXIS2_PLACEMENT_3D ( 'NONE', #152, #620, #93 ) ;
#186 = PERSON_AND_ORGANIZATION_ROLE ( 'creator' ) ;
#187 = EDGE_CURVE ( 'NONE', #429, #521, #98, .T. ) ;
#188 = CARTESIAN_POINT ( 'NONE',  ( 21.00000000000000000, 11.99999999999999822, 2.000000000000000000 ) ) ;
#189 = ORIENTED_EDGE ( 'NONE', *, *, #6, .F. ) ;
#190 = VECTOR ( 'NONE', #32, 1000.000000000000000 ) ;
#191 = ADVANCED_FACE ( 'NONE', ( #555 ), #678, .F. ) ;
#192 = PLANE ( 'NONE',  #214 ) ;
#193 = CARTESIAN_POINT ( 'NONE',  ( 9.000000000000001776, 10.00000000000000000, 2.000000000000000000 ) ) ;
#194 = APPROVAL_ROLE ( '' ) ;
#195 = CARTESIAN_POINT ( 'NONE',  ( -21.00000000000000000, -9.000000000000001776, 32.99999999999999289 ) ) ;
#196 = ADVANCED_FACE ( 'NONE', ( #670 ), #559, .F. ) ;
#197 = DIRECTION ( 'NONE',  ( -0.000000000000000000, -0.000000000000000000, -1.000000000000000000 ) ) ;
#198 = DATE_AND_TIME ( #144, #505 ) ;
#199 = CARTESIAN_POINT ( 'NONE',  ( 10.50000000000000178, -10.00000000000000000, 2.000000000000000000 ) ) ;
#200 = CARTESIAN_POINT ( 'NONE',  ( -21.00000000000000000, -9.000000000000001776, 27.99999999999999645 ) ) ;
#201 = ORIENTED_EDGE ( 'NONE', *, *, #318, .F. ) ;
#202 = DIRECTION ( 'NONE',  ( 1.000000000000000000, 0.000000000000000000, 0.000000000000000000 ) ) ;
#203 = CARTESIAN_POINT ( 'NONE',  ( 0.000000000000000000, 0.000000000000000000, 45.00000000000000000 ) ) ;
#204 = ORIENTED_EDGE ( 'NONE', *, *, #740, .F. ) ;
#205 = VERTEX_POINT ( 'NONE', #674 ) ;
#206 = EDGE_CURVE ( 'NONE', #159, #127, #143, .T. ) ;
#207 = DIRECTION ( 'NONE',  ( 0.000000000000000000, -0.000000000000000000, -1.000000000000000000 ) ) ;
#208 = DIRECTION ( 'NONE',  ( 0.000000000000000000, 0.000000000000000000, 1.000000000000000000 ) ) ;
#209 = EDGE_LOOP ( 'NONE', ( #315, #162, #86, #689 ) ) ;
#210 = EDGE_CURVE ( 'NONE', #116, #253, #371, .T. ) ;
#211 = CARTESIAN_POINT ( 'NONE',  ( -21.00000000000000000, -9.000000000000001776, 27.99999999999999645 ) ) ;
#212 = VERTEX_POINT ( 'NONE', #199 ) ;
#213 = ORIENTED_EDGE ( 'NONE', *, *, #564, .F. ) ;
#214 = AXIS2_PLACEMENT_3D ( 'NONE', #617, #549, #732 ) ;
#215 = CARTESIAN_POINT ( 'NONE',  ( 21.00000000000000000, -9.000000000000001776, 27.99999999999999645 ) ) ;
#216 = FACE_OUTER_BOUND ( 'NONE', #705, .T. ) ;
#217 = EDGE_CURVE ( 'NONE', #458, #173, #72, .T. ) ;
#218 = ORIENTED_EDGE ( 'NONE', *, *, #333, .F. ) ;
#219 = DIRECTION ( 'NONE',  ( 0.000000000000000000, 1.000000000000000000, 0.000000000000000000 ) ) ;
#220 = LINE ( 'NONE', #331, #25 ) ;
#221 = VERTEX_POINT ( 'NONE', #250 ) ;
#222 = CC_DESIGN_PERSON_AND_ORGANIZATION_ASSIGNMENT ( #17, #186, ( #737 ) ) ;
#223 = ORIENTED_EDGE ( 'NONE', *, *, #436, .T. ) ;
#224 = CARTESIAN_POINT ( 'NONE',  ( 10.50000000000000178, 10.00000000000000000, 2.000000000000000000 ) ) ;
#225 = DIRECTION ( 'NONE',  ( 1.000000000000000000, 0.000000000000000000, 0.000000000000000000 ) ) ;
#226 = ADVANCED_BREP_SHAPE_REPRESENTATION ( 'SUPPORT DU CAPTEUR  COULEUR1', ( #238, #261 ), #718 ) ;
#227 = ORIENTED_EDGE ( 'NONE', *, *, #681, .F. ) ;
#228 = ORIENTED_EDGE ( 'NONE', *, *, #232, .F. ) ;
#229 = ADVANCED_FACE ( 'NONE', ( #491 ), #431, .F. ) ;
#230 = DIRECTION ( 'NONE',  ( -1.000000000000000000, 0.000000000000000000, 0.000000000000000000 ) ) ;
#231 = ORIENTED_EDGE ( 'NONE', *, *, #765, .T. ) ;
#232 = EDGE_CURVE ( 'NONE', #391, #638, #27, .T. ) ;
#233 = CARTESIAN_POINT ( 'NONE',  ( -21.00000000000000000, -5.000000000000001776, 45.00000000000000000 ) ) ;
#234 = CARTESIAN_POINT ( 'NONE',  ( 9.000000000000001776, 10.00000000000000000, 2.000000000000000000 ) ) ;
#235 = PLANE ( 'NONE',  #539 ) ;
#236 = VECTOR ( 'NONE', #367, 1000.000000000000000 ) ;
#237 = LINE ( 'NONE', #81, #668 ) ;
#238 = MANIFOLD_SOLID_BREP ( 'Enl\X2\00e8\X0\v. mat.-Extru.3', #43 ) ;
#239 = CALENDAR_DATE ( 2026, 21, 5 ) ;
#240 = DIRECTION ( 'NONE',  ( -1.000000000000000000, 0.000000000000000000, -0.000000000000000000 ) ) ;
#241 = ORIENTED_EDGE ( 'NONE', *, *, #464, .T. ) ;
#242 = DIRECTION ( 'NONE',  ( -0.000000000000000000, -0.000000000000000000, -1.000000000000000000 ) ) ;
#243 = CARTESIAN_POINT ( 'NONE',  ( -21.00000000000000000, -9.000000000000001776, 37.00000000000000000 ) ) ;
#244 = ADVANCED_FACE ( 'NONE', ( #615 ), #316, .F. ) ;
#245 = COORDINATED_UNIVERSAL_TIME_OFFSET ( 1, 0, .AHEAD. ) ;
#246 = CARTESIAN_POINT ( 'NONE',  ( 21.00000000000000000, -12.00000000000000178, 2.000000000000000000 ) ) ;
#247 = PERSON_AND_ORGANIZATION ( #55, #137 ) ;
#248 = ADVANCED_FACE ( 'NONE', ( #114 ), #512, .F. ) ;
#249 = DIRECTION ( 'NONE',  ( -1.000000000000000000, -0.000000000000000000, -0.000000000000000000 ) ) ;
#250 = CARTESIAN_POINT ( 'NONE',  ( 21.00000000000000000, -12.00000000000000178, 0.000000000000000000 ) ) ;
#251 = APPROVAL_ROLE ( '' ) ;
#252 = DIRECTION ( 'NONE',  ( -1.000000000000000000, -0.000000000000000000, -0.000000000000000000 ) ) ;
#253 = VERTEX_POINT ( 'NONE', #517 ) ;
#254 = AXIS2_PLACEMENT_3D ( 'NONE', #578, #104, #207 ) ;
#255 = DIRECTION ( 'NONE',  ( 0.000000000000000000, -1.000000000000000000, 0.000000000000000000 ) ) ;
#256 = ORIENTED_EDGE ( 'NONE', *, *, #333, .T. ) ;
#257 = ORIENTED_EDGE ( 'NONE', *, *, #125, .F. ) ;
#258 = AXIS2_PLACEMENT_3D ( 'NONE', #161, #515, #627 ) ;
#259 = DIRECTION ( 'NONE',  ( 0.000000000000000000, 1.000000000000000000, 0.000000000000000000 ) ) ;
#260 = EDGE_CURVE ( 'NONE', #626, #173, #363, .T. ) ;
#261 = AXIS2_PLACEMENT_3D ( 'NONE', #302, #715, #664 ) ;
#262 = CARTESIAN_POINT ( 'NONE',  ( 10.50000000000000178, 10.00000000000000000, 0.000000000000000000 ) ) ;
#263 = FACE_OUTER_BOUND ( 'NONE', #287, .T. ) ;
#264 = ORIENTED_EDGE ( 'NONE', *, *, #122, .F. ) ;
#265 = ORIENTED_EDGE ( 'NONE', *, *, #206, .T. ) ;
#266 = CC_DESIGN_DATE_AND_TIME_ASSIGNMENT ( #551, #544, ( #12 ) ) ;
#267 = LINE ( 'NONE', #393, #423 ) ;
#268 = ORIENTED_EDGE ( 'NONE', *, *, #703, .T. ) ;
#269 = ORIENTED_EDGE ( 'NONE', *, *, #64, .T. ) ;
#270 = AXIS2_PLACEMENT_3D ( 'NONE', #184, #655, #364 ) ;
#271 = VECTOR ( 'NONE', #446, 1000.000000000000000 ) ;
#272 = DIRECTION ( 'NONE',  ( 0.000000000000000000, 0.000000000000000000, 1.000000000000000000 ) ) ;
#273 = DIRECTION ( 'NONE',  ( 0.000000000000000000, 0.000000000000000000, 1.000000000000000000 ) ) ;
#274 = ORIENTED_EDGE ( 'NONE', *, *, #747, .F. ) ;
#275 = CIRCLE ( 'NONE', #61, 2.000000000000001776 ) ;
#276 = DIRECTION ( 'NONE',  ( 0.000000000000000000, 0.000000000000000000, -1.000000000000000000 ) ) ;
#277 = EDGE_CURVE ( 'NONE', #54, #651, #595, .T. ) ;
#278 = CYLINDRICAL_SURFACE ( 'NONE', #350, 2.000000000000001776 ) ;
#279 = ORIENTED_EDGE ( 'NONE', *, *, #170, .T. ) ;
#280 = ORIENTED_EDGE ( 'NONE', *, *, #217, .F. ) ;
#281 = LINE ( 'NONE', #330, #68 ) ;
#282 = LINE ( 'NONE', #456, #30 ) ;
#283 = ORIENTED_EDGE ( 'NONE', *, *, #643, .F. ) ;
#284 = ORIENTED_EDGE ( 'NONE', *, *, #53, .T. ) ;
#285 = AXIS2_PLACEMENT_3D ( 'NONE', #343, #156, #225 ) ;
#286 = CYLINDRICAL_SURFACE ( 'NONE', #84, 1.500000000000001332 ) ;
#287 = EDGE_LOOP ( 'NONE', ( #337, #317, #280, #59, #359, #5 ) ) ;
#288 = ORIENTED_EDGE ( 'NONE', *, *, #355, .F. ) ;
#289 = CARTESIAN_POINT ( 'NONE',  ( -6.500000000000000888, 11.99999999999999822, 2.000000000000000000 ) ) ;
#290 = DIRECTION ( 'NONE',  ( -1.000000000000000000, -0.000000000000000000, -0.000000000000000000 ) ) ;
#291 = FACE_BOUND ( 'NONE', #382, .T. ) ;
#292 = AXIS2_PLACEMENT_3D ( 'NONE', #635, #113, #460 ) ;
#293 = EDGE_LOOP ( 'NONE', ( #757, #501, #680, #256 ) ) ;
#294 = FACE_OUTER_BOUND ( 'NONE', #119, .T. ) ;
#295 = EDGE_CURVE ( 'NONE', #221, #391, #117, .T. ) ;
#296 = CYLINDRICAL_SURFACE ( 'NONE', #377, 1.500000000000001332 ) ;
#297 = VECTOR ( 'NONE', #290, 1000.000000000000000 ) ;
#298 = AXIS2_PLACEMENT_3D ( 'NONE', #437, #743, #208 ) ;
#299 = ORIENTED_EDGE ( 'NONE', *, *, #653, .T. ) ;
#300 = CARTESIAN_POINT ( 'NONE',  ( -18.00000000000000355, -12.00000000000000178, 2.000000000000015543 ) ) ;
#301 = DIRECTION ( 'NONE',  ( 0.000000000000000000, 0.000000000000000000, 1.000000000000000000 ) ) ;
#302 = CARTESIAN_POINT ( 'NONE',  ( 0.000000000000000000, 0.000000000000000000, 0.000000000000000000 ) ) ;
#303 = CARTESIAN_POINT ( 'NONE',  ( -18.00000000000000355, -5.000000000000001776, 2.000000000000000000 ) ) ;
#304 = ORIENTED_EDGE ( 'NONE', *, *, #518, .T. ) ;
#305 = EDGE_CURVE ( 'NONE', #695, #112, #691, .T. ) ;
#306 = APPROVAL_STATUS ( 'not_yet_approved' ) ;
#307 = CARTESIAN_POINT ( 'NONE',  ( 21.00000000000000000, -9.000000000000001776, 30.00000000000000000 ) ) ;
#308 = CARTESIAN_POINT ( 'NONE',  ( -11.50000000000000533, 11.99999999999999822, 0.000000000000000000 ) ) ;
#309 = VECTOR ( 'NONE', #158, 1000.000000000000000 ) ;
#310 = CALENDAR_DATE ( 2026, 21, 5 ) ;
#311 = APPROVAL ( #182, 'UNSPECIFIED' ) ;
#312 = DIRECTION ( 'NONE',  ( 1.000000000000000000, 0.000000000000000000, 0.000000000000000000 ) ) ;
#313 = AXIS2_PLACEMENT_3D ( 'NONE', #706, #177, #646 ) ;
#314 = DIRECTION ( 'NONE',  ( 0.000000000000000000, -1.000000000000000000, 0.000000000000000000 ) ) ;
#315 = ORIENTED_EDGE ( 'NONE', *, *, #489, .F. ) ;
#316 = PLANE ( 'NONE',  #166 ) ;
#317 = ORIENTED_EDGE ( 'NONE', *, *, #418, .T. ) ;
#318 = EDGE_CURVE ( 'NONE', #626, #439, #340, .T. ) ;
#319 = DIRECTION ( 'NONE',  ( -1.000000000000000000, 0.000000000000000000, 0.000000000000000000 ) ) ;
#320 = VECTOR ( 'NONE', #252, 1000.000000000000000 ) ;
#321 = ORIENTED_EDGE ( 'NONE', *, *, #379, .T. ) ;
#322 = CARTESIAN_POINT ( 'NONE',  ( -6.500000000000000888, -12.00000000000000178, 2.000000000000000000 ) ) ;
#323 = PLANE ( 'NONE',  #465 ) ;
#324 = ADVANCED_FACE ( 'NONE', ( #216 ), #286, .F. ) ;
#325 = CARTESIAN_POINT ( 'NONE',  ( 9.000000000000001776, 10.00000000000000000, 0.000000000000000000 ) ) ;
#326 = PRODUCT ( 'SUPPORT DU CAPTEUR  COULEUR1', 'SUPPORT DU CAPTEUR  COULEUR1', '', ( #608 ) ) ;
#327 = DIRECTION ( 'NONE',  ( -1.000000000000000000, 0.000000000000000000, 0.000000000000000000 ) ) ;
#328 = ORIENTED_EDGE ( 'NONE', *, *, #634, .F. ) ;
#329 = CIRCLE ( 'NONE', #628, 2.000000000000001776 ) ;
#330 = CARTESIAN_POINT ( 'NONE',  ( -11.50000000000000178, 11.99999999999999822, 0.000000000000000000 ) ) ;
#331 = CARTESIAN_POINT ( 'NONE',  ( -18.00000000000000355, -12.00000000000000178, 45.00000000000000000 ) ) ;
#332 = ORIENTED_EDGE ( 'NONE', *, *, #518, .F. ) ;
#333 = EDGE_CURVE ( 'NONE', #57, #221, #282, .T. ) ;
#334 = VECTOR ( 'NONE', #754, 1000.000000000000000 ) ;
#335 =( LENGTH_UNIT ( ) NAMED_UNIT ( * ) SI_UNIT ( .MILLI., .METRE. ) );
#336 = DIRECTION ( 'NONE',  ( -1.000000000000000000, -0.000000000000000000, -0.000000000000000000 ) ) ;
#337 = ORIENTED_EDGE ( 'NONE', *, *, #58, .T. ) ;
#338 = AXIS2_PLACEMENT_3D ( 'NONE', #408, #11, #240 ) ;
#339 = CARTESIAN_POINT ( 'NONE',  ( 21.00000000000000000, -9.000000000000001776, 32.99999999999999289 ) ) ;
#340 = LINE ( 'NONE', #583, #309 ) ;
#341 = ORIENTED_EDGE ( 'NONE', *, *, #99, .T. ) ;
#342 = VECTOR ( 'NONE', #677, 1000.000000000000000 ) ;
#343 = CARTESIAN_POINT ( 'NONE',  ( -9.000000000000001776, -12.00000000000000178, 2.000000000000000000 ) ) ;
#344 = EDGE_CURVE ( 'NONE', #439, #205, #435, .T. ) ;
#345 = VERTEX_POINT ( 'NONE', #403 ) ;
#346 = ORIENTED_EDGE ( 'NONE', *, *, #464, .F. ) ;
#347 = LINE ( 'NONE', #183, #648 ) ;
#348 = APPROVAL ( #306, 'UNSPECIFIED' ) ;
#349 = LINE ( 'NONE', #63, #297 ) ;
#350 = AXIS2_PLACEMENT_3D ( 'NONE', #450, #336, #566 ) ;
#351 = CARTESIAN_POINT ( 'NONE',  ( 9.000000000000001776, 10.00000000000000000, 2.000000000000000000 ) ) ;
#352 = EDGE_LOOP ( 'NONE', ( #447, #580, #404, #82 ) ) ;
#353 = CARTESIAN_POINT ( 'NONE',  ( 9.000000000000001776, 10.00000000000000000, 0.000000000000000000 ) ) ;
#354 = DIRECTION ( 'NONE',  ( -0.000000000000000000, -0.000000000000000000, -1.000000000000000000 ) ) ;
#355 = EDGE_CURVE ( 'NONE', #395, #127, #267, .T. ) ;
#356 = FACE_OUTER_BOUND ( 'NONE', #762, .T. ) ;
#357 = VECTOR ( 'NONE', #433, 1000.000000000000000 ) ;
#358 = EDGE_LOOP ( 'NONE', ( #734, #584, #107, #328 ) ) ;
#359 = ORIENTED_EDGE ( 'NONE', *, *, #653, .F. ) ;
#360 = EDGE_CURVE ( 'NONE', #504, #675, #410, .T. ) ;
#361 = PRODUCT_DEFINITION_SHAPE ( 'NONE', 'NONE',  #12 ) ;
#362 = FACE_OUTER_BOUND ( 'NONE', #542, .T. ) ;
#363 = CIRCLE ( 'NONE', #285, 2.500000000000000444 ) ;
#364 = DIRECTION ( 'NONE',  ( 1.000000000000000000, 0.000000000000000000, 0.000000000000000000 ) ) ;
#365 = FACE_BOUND ( 'NONE', #659, .T. ) ;
#366 = EDGE_CURVE ( 'NONE', #345, #482, #275, .T. ) ;
#367 = DIRECTION ( 'NONE',  ( 1.000000000000000000, 0.000000000000000000, 0.000000000000000000 ) ) ;
#368 = APPROVAL_PERSON_ORGANIZATION ( #419, #311, #194 ) ;
#369 = APPROVAL_DATE_TIME ( #136, #612 ) ;
#370 = CARTESIAN_POINT ( 'NONE',  ( -21.00000000000000000, 11.99999999999999822, 0.000000000000000000 ) ) ;
#371 = LINE ( 'NONE', #146, #500 ) ;
#372 = EDGE_CURVE ( 'NONE', #477, #127, #466, .T. ) ;
#373 = PERSON_AND_ORGANIZATION ( #55, #137 ) ;
#374 = FACE_OUTER_BOUND ( 'NONE', #701, .T. ) ;
#375 = PLANE ( 'NONE',  #397 ) ;
#376 = ORIENTED_EDGE ( 'NONE', *, *, #1, .F. ) ;
#377 = AXIS2_PLACEMENT_3D ( 'NONE', #351, #586, #62 ) ;
#378 = DIRECTION ( 'NONE',  ( -1.000000000000000000, -0.000000000000000000, -0.000000000000000000 ) ) ;
#379 = EDGE_CURVE ( 'NONE', #651, #54, #576, .T. ) ;
#380 = CARTESIAN_POINT ( 'NONE',  ( 9.000000000000001776, -10.00000000000000000, 2.000000000000000000 ) ) ;
#381 = DIRECTION ( 'NONE',  ( -1.000000000000000000, 0.000000000000000000, 0.000000000000000000 ) ) ;
#382 = EDGE_LOOP ( 'NONE', ( #467, #640 ) ) ;
#383 = CARTESIAN_POINT ( 'NONE',  ( -21.00000000000000000, -12.00000000000000178, 2.000000000000000000 ) ) ;
#384 = DIRECTION ( 'NONE',  ( 0.000000000000000000, 0.000000000000000000, 1.000000000000000000 ) ) ;
#385 =( NAMED_UNIT ( * ) SI_UNIT ( $, .STERADIAN. ) SOLID_ANGLE_UNIT ( ) );
#386 = CARTESIAN_POINT ( 'NONE',  ( 0.000000000000000000, -5.000000000000001776, 2.000000000000000000 ) ) ;
#387 = AXIS2_PLACEMENT_3D ( 'NONE', #211, #167, #767 ) ;
#388 = ORIENTED_EDGE ( 'NONE', *, *, #210, .T. ) ;
#389 = CARTESIAN_POINT ( 'NONE',  ( -11.50000000000000178, -12.00000000000000178, 0.000000000000000000 ) ) ;
#390 = ORIENTED_EDGE ( 'NONE', *, *, #217, .T. ) ;
#391 = VERTEX_POINT ( 'NONE', #630 ) ;
#392 = AXIS2_PLACEMENT_3D ( 'NONE', #215, #696, #51 ) ;
#393 = CARTESIAN_POINT ( 'NONE',  ( -21.00000000000000000, -5.000000000000001776, 45.00000000000000000 ) ) ;
#394 = ORIENTED_EDGE ( 'NONE', *, *, #103, .T. ) ;
#395 = VERTEX_POINT ( 'NONE', #171 ) ;
#396 = CIRCLE ( 'NONE', #571, 1.500000000000001332 ) ;
#397 = AXIS2_PLACEMENT_3D ( 'NONE', #203, #85, #441 ) ;
#398 = FACE_OUTER_BOUND ( 'NONE', #352, .T. ) ;
#399 = DIRECTION ( 'NONE',  ( -0.000000000000000000, -0.000000000000000000, -1.000000000000000000 ) ) ;
#400 = ORIENTED_EDGE ( 'NONE', *, *, #125, .T. ) ;
#401 = ORIENTED_EDGE ( 'NONE', *, *, #318, .T. ) ;
#402 = APPROVAL_PERSON_ORGANIZATION ( #603, #348, #251 ) ;
#403 = CARTESIAN_POINT ( 'NONE',  ( -18.00000000000000000, -9.000000000000001776, 37.00000000000000000 ) ) ;
#404 = ORIENTED_EDGE ( 'NONE', *, *, #187, .F. ) ;
#405 = ORIENTED_EDGE ( 'NONE', *, *, #170, .F. ) ;
#406 = VECTOR ( 'NONE', #473, 1000.000000000000000 ) ;
#407 = CC_DESIGN_PERSON_AND_ORGANIZATION_ASSIGNMENT ( #373, #83, ( #326 ) ) ;
#408 = CARTESIAN_POINT ( 'NONE',  ( 0.000000000000000000, 0.000000000000000000, 2.000000000000000000 ) ) ;
#409 = ORIENTED_EDGE ( 'NONE', *, *, #596, .F. ) ;
#410 = CIRCLE ( 'NONE', #387, 2.000000000000001776 ) ;
#411 = CYLINDRICAL_SURFACE ( 'NONE', #313, 2.000000000000001776 ) ;
#412 = CARTESIAN_POINT ( 'NONE',  ( 7.500000000000000000, -10.00000000000000000, 0.000000000000000000 ) ) ;
#413 = ADVANCED_FACE ( 'NONE', ( #683 ), #278, .F. ) ;
#414 = AXIS2_PLACEMENT_3D ( 'NONE', #138, #427, #202 ) ;
#415 = SECURITY_CLASSIFICATION ( '', '', #591 ) ;
#416 = DIRECTION ( 'NONE',  ( 0.000000000000000000, 0.000000000000000000, -1.000000000000000000 ) ) ;
#417 = ORIENTED_EDGE ( 'NONE', *, *, #164, .T. ) ;
#418 = EDGE_CURVE ( 'NONE', #205, #173, #687, .T. ) ;
#419 = PERSON_AND_ORGANIZATION ( #55, #137 ) ;
#420 = LINE ( 'NONE', #123, #766 ) ;
#421 = ORIENTED_EDGE ( 'NONE', *, *, #344, .T. ) ;
#422 = FACE_BOUND ( 'NONE', #36, .T. ) ;
#423 = VECTOR ( 'NONE', #38, 1000.000000000000000 ) ;
#424 = CARTESIAN_POINT ( 'NONE',  ( -21.00000000000000000, -12.00000000000000178, 0.000000000000000000 ) ) ;
#425 = DATE_AND_TIME ( #310, #649 ) ;
#426 = VECTOR ( 'NONE', #471, 1000.000000000000000 ) ;
#427 = DIRECTION ( 'NONE',  ( 0.000000000000000000, 0.000000000000000000, 1.000000000000000000 ) ) ;
#428 = CARTESIAN_POINT ( 'NONE',  ( -18.00000000000000000, -9.000000000000001776, 30.00000000000000000 ) ) ;
#429 = VERTEX_POINT ( 'NONE', #575 ) ;
#430 = LINE ( 'NONE', #145, #459 ) ;
#431 = PLANE ( 'NONE',  #573 ) ;
#432 = CALENDAR_DATE ( 2026, 21, 5 ) ;
#433 = DIRECTION ( 'NONE',  ( -1.000000000000000000, -0.000000000000000000, -0.000000000000000000 ) ) ;
#434 = CARTESIAN_POINT ( 'NONE',  ( -21.00000000000000000, 11.99999999999999822, 0.000000000000000000 ) ) ;
#435 = CIRCLE ( 'NONE', #258, 2.500000000000000444 ) ;
#436 = EDGE_CURVE ( 'NONE', #516, #458, #220, .T. ) ;
#437 = CARTESIAN_POINT ( 'NONE',  ( 21.00000000000000000, -9.000000000000001776, 34.99999999999999289 ) ) ;
#438 = ORIENTED_EDGE ( 'NONE', *, *, #449, .F. ) ;
#439 = VERTEX_POINT ( 'NONE', #636 ) ;
#440 = DIRECTION ( 'NONE',  ( -0.000000000000000000, -0.000000000000000000, 1.000000000000000000 ) ) ;
#441 = DIRECTION ( 'NONE',  ( 1.000000000000000000, 0.000000000000000000, 0.000000000000000000 ) ) ;
#442 = ORIENTED_EDGE ( 'NONE', *, *, #64, .F. ) ;
#443 = AXIS2_PLACEMENT_3D ( 'NONE', #380, #23, #554 ) ;
#444 = ADVANCED_FACE ( 'NONE', ( #422, #469, #77 ), #600, .F. ) ;
#445 = FACE_OUTER_BOUND ( 'NONE', #209, .T. ) ;
#446 = DIRECTION ( 'NONE',  ( -0.000000000000000000, -1.000000000000000000, -0.000000000000000000 ) ) ;
#447 = ORIENTED_EDGE ( 'NONE', *, *, #232, .T. ) ;
#448 = DIRECTION ( 'NONE',  ( -0.000000000000000000, -0.000000000000000000, -1.000000000000000000 ) ) ;
#449 = EDGE_CURVE ( 'NONE', #345, #54, #420, .T. ) ;
#450 = CARTESIAN_POINT ( 'NONE',  ( 21.00000000000000000, -9.000000000000001776, 34.99999999999999289 ) ) ;
#451 = AXIS2_PLACEMENT_3D ( 'NONE', #476, #658, #531 ) ;
#452 = ORIENTED_EDGE ( 'NONE', *, *, #355, .T. ) ;
#453 = ORIENTED_EDGE ( 'NONE', *, *, #703, .F. ) ;
#454 = APPROVAL_PERSON_ORGANIZATION ( #656, #612, #21 ) ;
#455 = CARTESIAN_POINT ( 'NONE',  ( -18.00000000000000000, -9.000000000000001776, 27.99999999999999645 ) ) ;
#456 = CARTESIAN_POINT ( 'NONE',  ( 21.00000000000000000, -12.00000000000000178, 2.000000000000000000 ) ) ;
#457 = ORIENTED_EDGE ( 'NONE', *, *, #6, .T. ) ;
#458 = VERTEX_POINT ( 'NONE', #300 ) ;
#459 = VECTOR ( 'NONE', #665, 1000.000000000000000 ) ;
#460 = DIRECTION ( 'NONE',  ( 0.000000000000000000, 0.000000000000000000, 1.000000000000000000 ) ) ;
#461 = DIRECTION ( 'NONE',  ( -0.000000000000000000, -0.000000000000000000, -1.000000000000000000 ) ) ;
#462 = EDGE_LOOP ( 'NONE', ( #269, #572, #470, #611 ) ) ;
#463 = EDGE_LOOP ( 'NONE', ( #442, #189 ) ) ;
#464 = EDGE_CURVE ( 'NONE', #516, #568, #347, .T. ) ;
#465 = AXIS2_PLACEMENT_3D ( 'NONE', #727, #259, #507 ) ;
#466 = LINE ( 'NONE', #386, #479 ) ;
#467 = ORIENTED_EDGE ( 'NONE', *, *, #547, .T. ) ;
#468 = ADVANCED_FACE ( 'NONE', ( #2 ), #296, .F. ) ;
#469 = FACE_BOUND ( 'NONE', #526, .T. ) ;
#470 = ORIENTED_EDGE ( 'NONE', *, *, #694, .F. ) ;
#471 = DIRECTION ( 'NONE',  ( 0.000000000000000000, -1.000000000000000000, 0.000000000000000000 ) ) ;
#472 = CARTESIAN_POINT ( 'NONE',  ( -21.00000000000000000, -12.00000000000000178, 2.000000000000000000 ) ) ;
#473 = DIRECTION ( 'NONE',  ( -0.000000000000000000, -0.000000000000000000, 1.000000000000000000 ) ) ;
#474 = VECTOR ( 'NONE', #67, 1000.000000000000000 ) ;
#475 = CIRCLE ( 'NONE', #560, 1.500000000000001332 ) ;
#476 = CARTESIAN_POINT ( 'NONE',  ( -21.00000000000000000, -12.00000000000000178, 2.000000000000000000 ) ) ;
#477 = VERTEX_POINT ( 'NONE', #303 ) ;
#478 = DATE_AND_TIME ( #432, #88 ) ;
#479 = VECTOR ( 'NONE', #327, 1000.000000000000000 ) ;
#480 = CC_DESIGN_APPROVAL ( #311, ( #415 ) ) ;
#481 = LINE ( 'NONE', #120, #553 ) ;
#482 = VERTEX_POINT ( 'NONE', #650 ) ;
#483 = CARTESIAN_POINT ( 'NONE',  ( -21.00000000000000000, 11.99999999999999822, 0.000000000000000000 ) ) ;
#484 = FACE_OUTER_BOUND ( 'NONE', #358, .T. ) ;
#485 = LINE ( 'NONE', #424, #236 ) ;
#486 = DATE_TIME_ROLE ( 'classification_date' ) ;
#487 = ORIENTED_EDGE ( 'NONE', *, *, #564, .T. ) ;
#488 = COORDINATED_UNIVERSAL_TIME_OFFSET ( 1, 0, .AHEAD. ) ;
#489 = EDGE_CURVE ( 'NONE', #527, #504, #541, .T. ) ;
#490 = CARTESIAN_POINT ( 'NONE',  ( -6.500000000000000888, 11.99999999999999822, 0.000000000000000000 ) ) ;
#491 = FACE_OUTER_BOUND ( 'NONE', #631, .T. ) ;
#492 = EDGE_LOOP ( 'NONE', ( #204, #751, #169, #95 ) ) ;
#493 = LINE ( 'NONE', #28, #357 ) ;
#494 = ADVANCED_FACE ( 'NONE', ( #362, #180, #291 ), #235, .T. ) ;
#495 = DIRECTION ( 'NONE',  ( -0.000000000000000000, -0.000000000000000000, -1.000000000000000000 ) ) ;
#496 = VECTOR ( 'NONE', #219, 1000.000000000000000 ) ;
#497 = CARTESIAN_POINT ( 'NONE',  ( -21.00000000000000000, 11.99999999999999822, 2.000000000000000000 ) ) ;
#498 = ADVANCED_FACE ( 'NONE', ( #365, #65, #356 ), #19, .F. ) ;
#499 = VECTOR ( 'NONE', #708, 1000.000000000000000 ) ;
#500 = VECTOR ( 'NONE', #605, 1000.000000000000000 ) ;
#501 = ORIENTED_EDGE ( 'NONE', *, *, #522, .F. ) ;
#502 = FACE_OUTER_BOUND ( 'NONE', #293, .T. ) ;
#503 = FACE_OUTER_BOUND ( 'NONE', #514, .T. ) ;
#504 = VERTEX_POINT ( 'NONE', #71 ) ;
#505 = LOCAL_TIME ( 11, 17, 27.00000000000000000, #245 ) ;
#506 = CARTESIAN_POINT ( 'NONE',  ( 10.50000000000000178, 10.00000000000000000, 2.000000000000000000 ) ) ;
#507 = DIRECTION ( 'NONE',  ( 0.000000000000000000, -0.000000000000000000, 1.000000000000000000 ) ) ;
#508 = EDGE_LOOP ( 'NONE', ( #168, #684 ) ) ;
#509 = ORIENTED_EDGE ( 'NONE', *, *, #372, .T. ) ;
#510 = ADVANCED_FACE ( 'NONE', ( #593, #175, #545 ), #15, .F. ) ;
#511 = DIRECTION ( 'NONE',  ( -1.000000000000000000, -0.000000000000000000, -0.000000000000000000 ) ) ;
#512 = PLANE ( 'NONE',  #749 ) ;
#513 = ORIENTED_EDGE ( 'NONE', *, *, #305, .F. ) ;
#514 = EDGE_LOOP ( 'NONE', ( #241, #341, #641, #299 ) ) ;
#515 = DIRECTION ( 'NONE',  ( 0.000000000000000000, 0.000000000000000000, 1.000000000000000000 ) ) ;
#516 = VERTEX_POINT ( 'NONE', #642 ) ;
#517 = CARTESIAN_POINT ( 'NONE',  ( 7.500000000000000000, 10.00000000000000000, 0.000000000000000000 ) ) ;
#518 = EDGE_CURVE ( 'NONE', #212, #102, #481, .T. ) ;
#519 = EDGE_LOOP ( 'NONE', ( #39, #405 ) ) ;
#520 = CARTESIAN_POINT ( 'NONE',  ( -18.00000000000000000, -9.000000000000001776, 34.99999999999999289 ) ) ;
#521 = VERTEX_POINT ( 'NONE', #289 ) ;
#522 = EDGE_CURVE ( 'NONE', #429, #391, #716, .T. ) ;
#523 = ORIENTED_EDGE ( 'NONE', *, *, #260, .F. ) ;
#524 = VECTOR ( 'NONE', #550, 1000.000000000000000 ) ;
#525 = DIRECTION ( 'NONE',  ( -1.000000000000000000, 0.000000000000000000, 0.000000000000000000 ) ) ;
#526 = EDGE_LOOP ( 'NONE', ( #632, #135 ) ) ;
#527 = VERTEX_POINT ( 'NONE', #597 ) ;
#528 = EDGE_CURVE ( 'NONE', #395, #692, #529, .T. ) ;
#529 = LINE ( 'NONE', #233, #426 ) ;
#530 = LINE ( 'NONE', #16, #9 ) ;
#531 = DIRECTION ( 'NONE',  ( 0.000000000000000000, 0.000000000000000000, -1.000000000000000000 ) ) ;
#532 = ORIENTED_EDGE ( 'NONE', *, *, #148, .F. ) ;
#533 = DIRECTION ( 'NONE',  ( 0.000000000000000000, 0.000000000000000000, 1.000000000000000000 ) ) ;
#534 = COORDINATED_UNIVERSAL_TIME_OFFSET ( 1, 0, .AHEAD. ) ;
#535 = AXIS2_PLACEMENT_3D ( 'NONE', #193, #301, #720 ) ;
#536 = DIRECTION ( 'NONE',  ( 0.000000000000000000, 0.000000000000000000, 1.000000000000000000 ) ) ;
#537 = DIRECTION ( 'NONE',  ( 0.000000000000000000, 0.000000000000000000, 1.000000000000000000 ) ) ;
#538 = COORDINATED_UNIVERSAL_TIME_OFFSET ( 1, 0, .AHEAD. ) ;
#539 = AXIS2_PLACEMENT_3D ( 'NONE', #134, #416, #126 ) ;
#540 = LOCAL_TIME ( 11, 17, 27.00000000000000000, #538 ) ;
#541 = LINE ( 'NONE', #7, #147 ) ;
#542 = EDGE_LOOP ( 'NONE', ( #421, #176, #532, #376, #577, #228, #20, #213 ) ) ;
#543 = ADVANCED_FACE ( 'NONE', ( #484 ), #411, .F. ) ;
#544 = DATE_TIME_ROLE ( 'creation_date' ) ;
#545 = FACE_OUTER_BOUND ( 'NONE', #118, .T. ) ;
#546 = CARTESIAN_POINT ( 'NONE',  ( -9.000000000000001776, 11.99999999999999822, 0.000000000000000000 ) ) ;
#547 = EDGE_CURVE ( 'NONE', #112, #102, #613, .T. ) ;
#548 = PERSON_AND_ORGANIZATION_ROLE ( 'classification_officer' ) ;
#549 = DIRECTION ( 'NONE',  ( -1.000000000000000000, 0.000000000000000000, 0.000000000000000000 ) ) ;
#550 = DIRECTION ( 'NONE',  ( 1.000000000000000000, 0.000000000000000000, 0.000000000000000000 ) ) ;
#551 = DATE_AND_TIME ( #667, #540 ) ;
#552 = ADVANCED_FACE ( 'NONE', ( #502 ), #192, .F. ) ;
#553 = VECTOR ( 'NONE', #242, 1000.000000000000000 ) ;
#554 = DIRECTION ( 'NONE',  ( 1.000000000000000000, 0.000000000000000000, 0.000000000000000000 ) ) ;
#555 = FACE_OUTER_BOUND ( 'NONE', #66, .T. ) ;
#556 = EDGE_CURVE ( 'NONE', #157, #638, #752, .T. ) ;
#557 = CYLINDRICAL_SURFACE ( 'NONE', #185, 1.500000000000001332 ) ;
#558 = CARTESIAN_POINT ( 'NONE',  ( -21.00000000000000000, 11.99999999999999822, 2.000000000000000000 ) ) ;
#559 = CYLINDRICAL_SURFACE ( 'NONE', #298, 2.000000000000001776 ) ;
#560 = AXIS2_PLACEMENT_3D ( 'NONE', #29, #90, #610 ) ;
#561 = LINE ( 'NONE', #383, #342 ) ;
#562 = CARTESIAN_POINT ( 'NONE',  ( 9.000000000000001776, -10.00000000000000000, 2.000000000000000000 ) ) ;
#563 = ORIENTED_EDGE ( 'NONE', *, *, #625, .T. ) ;
#564 = EDGE_CURVE ( 'NONE', #439, #221, #662, .T. ) ;
#565 = CARTESIAN_POINT ( 'NONE',  ( 7.500000000000000000, -10.00000000000000000, 2.000000000000000000 ) ) ;
#566 = DIRECTION ( 'NONE',  ( 0.000000000000000000, 0.000000000000000000, 1.000000000000000000 ) ) ;
#567 = ORIENTED_EDGE ( 'NONE', *, *, #418, .F. ) ;
#568 = VERTEX_POINT ( 'NONE', #31 ) ;
#569 = LINE ( 'NONE', #686, #496 ) ;
#570 = DIRECTION ( 'NONE',  ( 0.000000000000000000, -0.000000000000000000, 1.000000000000000000 ) ) ;
#571 = AXIS2_PLACEMENT_3D ( 'NONE', #234, #537, #13 ) ;
#572 = ORIENTED_EDGE ( 'NONE', *, *, #753, .T. ) ;
#573 = AXIS2_PLACEMENT_3D ( 'NONE', #666, #314, #730 ) ;
#574 = ADVANCED_FACE ( 'NONE', ( #374 ), #725, .F. ) ;
#575 = CARTESIAN_POINT ( 'NONE',  ( 21.00000000000000000, 11.99999999999999822, 2.000000000000000000 ) ) ;
#576 = CIRCLE ( 'NONE', #685, 2.000000000000001776 ) ;
#577 = ORIENTED_EDGE ( 'NONE', *, *, #556, .T. ) ;
#578 = CARTESIAN_POINT ( 'NONE',  ( -21.00000000000000000, 11.99999999999999822, 2.000000000000000000 ) ) ;
#579 = CARTESIAN_POINT ( 'NONE',  ( 21.00000000000000000, -12.00000000000000178, 0.000000000000000000 ) ) ;
#580 = ORIENTED_EDGE ( 'NONE', *, *, #681, .T. ) ;
#581 = ORIENTED_EDGE ( 'NONE', *, *, #41, .F. ) ;
#582 = AXIS2_PLACEMENT_3D ( 'NONE', #736, #440, #312 ) ;
#583 = CARTESIAN_POINT ( 'NONE',  ( -6.500000000000000888, -12.00000000000000178, 0.000000000000000000 ) ) ;
#584 = ORIENTED_EDGE ( 'NONE', *, *, #489, .T. ) ;
#585 = ORIENTED_EDGE ( 'NONE', *, *, #556, .F. ) ;
#586 = DIRECTION ( 'NONE',  ( -0.000000000000000000, -0.000000000000000000, -1.000000000000000000 ) ) ;
#587 = VERTEX_POINT ( 'NONE', #149 ) ;
#588 = CC_DESIGN_APPROVAL ( #612, ( #737 ) ) ;
#589 = DIRECTION ( 'NONE',  ( -1.000000000000000000, -0.000000000000000000, -0.000000000000000000 ) ) ;
#590 = LINE ( 'NONE', #483, #474 ) ;
#591 = SECURITY_CLASSIFICATION_LEVEL ( 'unclassified' ) ;
#592 = AXIS2_PLACEMENT_3D ( 'NONE', #325, #272, #100 ) ;
#593 = FACE_BOUND ( 'NONE', #519, .T. ) ;
#594 = ORIENTED_EDGE ( 'NONE', *, *, #148, .T. ) ;
#595 = CIRCLE ( 'NONE', #96, 2.000000000000001776 ) ;
#596 = EDGE_CURVE ( 'NONE', #692, #587, #561, .T. ) ;
#597 = CARTESIAN_POINT ( 'NONE',  ( -18.00000000000000000, -9.000000000000001776, 25.99999999999999645 ) ) ;
#598 = DIRECTION ( 'NONE',  ( 0.000000000000000000, 1.000000000000000000, 0.000000000000000000 ) ) ;
#599 = PERSON_AND_ORGANIZATION_ROLE ( 'creator' ) ;
#600 = PLANE ( 'NONE',  #451 ) ;
#601 = EDGE_CURVE ( 'NONE', #695, #212, #693, .T. ) ;
#602 = VERTEX_POINT ( 'NONE', #370 ) ;
#603 = PERSON_AND_ORGANIZATION ( #55, #137 ) ;
#604 = CARTESIAN_POINT ( 'NONE',  ( -9.000000000000001776, 11.99999999999999822, 2.000000000000000000 ) ) ;
#605 = DIRECTION ( 'NONE',  ( -0.000000000000000000, -0.000000000000000000, -1.000000000000000000 ) ) ;
#606 = ORIENTED_EDGE ( 'NONE', *, *, #643, .T. ) ;
#607 = ADVANCED_FACE ( 'NONE', ( #669 ), #557, .F. ) ;
#608 = MECHANICAL_CONTEXT ( 'NONE', #742, 'mechanical' ) ;
#609 = DIRECTION ( 'NONE',  ( 1.000000000000000000, 0.000000000000000000, 0.000000000000000000 ) ) ;
#610 = DIRECTION ( 'NONE',  ( 1.000000000000000000, 0.000000000000000000, 0.000000000000000000 ) ) ;
#611 = ORIENTED_EDGE ( 'NONE', *, *, #210, .F. ) ;
#612 = APPROVAL ( #661, 'UNSPECIFIED' ) ;
#613 = CIRCLE ( 'NONE', #660, 1.500000000000001332 ) ;
#614 = DIRECTION ( 'NONE',  ( 0.000000000000000000, 0.000000000000000000, 1.000000000000000000 ) ) ;
#615 = FACE_OUTER_BOUND ( 'NONE', #745, .T. ) ;
#616 = ORIENTED_EDGE ( 'NONE', *, *, #305, .T. ) ;
#617 = CARTESIAN_POINT ( 'NONE',  ( 21.00000000000000000, -12.00000000000000178, 2.000000000000000000 ) ) ;
#618 = CARTESIAN_POINT ( 'NONE',  ( -21.00000000000000000, -12.00000000000000178, 0.000000000000000000 ) ) ;
#619 = VECTOR ( 'NONE', #448, 1000.000000000000000 ) ;
#620 = DIRECTION ( 'NONE',  ( -0.000000000000000000, -0.000000000000000000, -1.000000000000000000 ) ) ;
#621 = DIRECTION ( 'NONE',  ( 0.000000000000000000, 0.000000000000000000, 1.000000000000000000 ) ) ;
#622 = CIRCLE ( 'NONE', #109, 1.500000000000001332 ) ;
#623 = LINE ( 'NONE', #760, #128 ) ;
#624 = CARTESIAN_POINT ( 'NONE',  ( 7.500000000000000000, -10.00000000000000000, 2.000000000000000000 ) ) ;
#625 = EDGE_CURVE ( 'NONE', #60, #521, #744, .T. ) ;
#626 = VERTEX_POINT ( 'NONE', #322 ) ;
#627 = DIRECTION ( 'NONE',  ( 1.000000000000000000, 0.000000000000000000, 0.000000000000000000 ) ) ;
#628 = AXIS2_PLACEMENT_3D ( 'NONE', #455, #160, #748 ) ;
#629 = ORIENTED_EDGE ( 'NONE', *, *, #206, .F. ) ;
#630 = CARTESIAN_POINT ( 'NONE',  ( 21.00000000000000000, 11.99999999999999822, 0.000000000000000000 ) ) ;
#631 = EDGE_LOOP ( 'NONE', ( #690, #509, #288, #731 ) ) ;
#632 = ORIENTED_EDGE ( 'NONE', *, *, #277, .F. ) ;
#633 = AXIS2_PLACEMENT_3D ( 'NONE', #562, #495, #319 ) ;
#634 = EDGE_CURVE ( 'NONE', #46, #675, #80, .T. ) ;
#635 = CARTESIAN_POINT ( 'NONE',  ( -18.00000000000000000, -9.000000000000001776, 34.99999999999999289 ) ) ;
#636 = CARTESIAN_POINT ( 'NONE',  ( -6.500000000000004441, -12.00000000000000178, 0.000000000000000000 ) ) ;
#637 = ORIENTED_EDGE ( 'NONE', *, *, #174, .F. ) ;
#638 = VERTEX_POINT ( 'NONE', #490 ) ;
#639 = DIRECTION ( 'NONE',  ( 0.000000000000000000, 0.000000000000000000, 1.000000000000000000 ) ) ;
#640 = ORIENTED_EDGE ( 'NONE', *, *, #41, .T. ) ;
#641 = ORIENTED_EDGE ( 'NONE', *, *, #528, .T. ) ;
#642 = CARTESIAN_POINT ( 'NONE',  ( -18.00000000000000355, -12.00000000000000178, 45.00000000000000000 ) ) ;
#643 = EDGE_CURVE ( 'NONE', #60, #159, #493, .T. ) ;
#644 = EDGE_LOOP ( 'NONE', ( #409, #172, #452, #629, #400, #594 ) ) ;
#645 = VECTOR ( 'NONE', #52, 1000.000000000000000 ) ;
#646 = DIRECTION ( 'NONE',  ( 0.000000000000000000, 0.000000000000000000, 1.000000000000000000 ) ) ;
#647 = LINE ( 'NONE', #472, #499 ) ;
#648 = VECTOR ( 'NONE', #130, 1000.000000000000000 ) ;
#649 = LOCAL_TIME ( 11, 17, 27.00000000000000000, #69 ) ;
#650 = CARTESIAN_POINT ( 'NONE',  ( -18.00000000000000000, -9.000000000000001776, 32.99999999999999289 ) ) ;
#651 = VERTEX_POINT ( 'NONE', #195 ) ;
#652 = APPROVAL_DATE_TIME ( #478, #311 ) ;
#653 = EDGE_CURVE ( 'NONE', #692, #516, #430, .T. ) ;
#654 = DIRECTION ( 'NONE',  ( -0.000000000000000000, -0.000000000000000000, -1.000000000000000000 ) ) ;
#655 = DIRECTION ( 'NONE',  ( 0.000000000000000000, 0.000000000000000000, 1.000000000000000000 ) ) ;
#656 = PERSON_AND_ORGANIZATION ( #55, #137 ) ;
#657 = CIRCLE ( 'NONE', #44, 2.000000000000001776 ) ;
#658 = DIRECTION ( 'NONE',  ( 1.000000000000000000, 0.000000000000000000, 0.000000000000000000 ) ) ;
#659 = EDGE_LOOP ( 'NONE', ( #115, #417 ) ) ;
#660 = AXIS2_PLACEMENT_3D ( 'NONE', #75, #673, #89 ) ;
#661 = APPROVAL_STATUS ( 'not_yet_approved' ) ;
#662 = LINE ( 'NONE', #26, #87 ) ;
#663 = DIRECTION ( 'NONE',  ( -0.000000000000000000, -0.000000000000000000, 1.000000000000000000 ) ) ;
#664 = DIRECTION ( 'NONE',  ( 1.000000000000000000, 0.000000000000000000, 0.000000000000000000 ) ) ;
#665 = DIRECTION ( 'NONE',  ( 1.000000000000000000, 0.000000000000000000, 0.000000000000000000 ) ) ;
#666 = CARTESIAN_POINT ( 'NONE',  ( -21.00000000000000000, -5.000000000000001776, 45.00000000000000000 ) ) ;
#667 = CALENDAR_DATE ( 2026, 21, 5 ) ;
#668 = VECTOR ( 'NONE', #197, 1000.000000000000000 ) ;
#669 = FACE_OUTER_BOUND ( 'NONE', #462, .T. ) ;
#670 = FACE_OUTER_BOUND ( 'NONE', #492, .T. ) ;
#671 = ORIENTED_EDGE ( 'NONE', *, *, #547, .F. ) ;
#672 = AXIS2_PLACEMENT_3D ( 'NONE', #704, #719, #536 ) ;
#673 = DIRECTION ( 'NONE',  ( 0.000000000000000000, 0.000000000000000000, 1.000000000000000000 ) ) ;
#674 = CARTESIAN_POINT ( 'NONE',  ( -11.50000000000000178, -12.00000000000000178, 0.000000000000000000 ) ) ;
#675 = VERTEX_POINT ( 'NONE', #142 ) ;
#676 = EDGE_CURVE ( 'NONE', #46, #527, #329, .T. ) ;
#677 = DIRECTION ( 'NONE',  ( -0.000000000000000000, -0.000000000000000000, -1.000000000000000000 ) ) ;
#678 = CYLINDRICAL_SURFACE ( 'NONE', #633, 1.500000000000001332 ) ;
#679 = AXIS2_PLACEMENT_3D ( 'NONE', #604, #614, #97 ) ;
#680 = ORIENTED_EDGE ( 'NONE', *, *, #53, .F. ) ;
#681 = EDGE_CURVE ( 'NONE', #638, #521, #42, .T. ) ;
#682 = LINE ( 'NONE', #224, #619 ) ;
#683 = FACE_OUTER_BOUND ( 'NONE', #759, .T. ) ;
#684 = ORIENTED_EDGE ( 'NONE', *, *, #122, .T. ) ;
#685 = AXIS2_PLACEMENT_3D ( 'NONE', #758, #230, #639 ) ;
#686 = CARTESIAN_POINT ( 'NONE',  ( -18.00000000000000355, 0.000000000000000000, 2.000000000000000000 ) ) ;
#687 = LINE ( 'NONE', #389, #714 ) ;
#688 = EDGE_CURVE ( 'NONE', #568, #477, #623, .T. ) ;
#689 = ORIENTED_EDGE ( 'NONE', *, *, #174, .T. ) ;
#690 = ORIENTED_EDGE ( 'NONE', *, *, #688, .T. ) ;
#691 = LINE ( 'NONE', #624, #334 ) ;
#692 = VERTEX_POINT ( 'NONE', #710 ) ;
#693 = CIRCLE ( 'NONE', #443, 1.500000000000001332 ) ;
#694 = EDGE_CURVE ( 'NONE', #253, #756, #18, .T. ) ;
#695 = VERTEX_POINT ( 'NONE', #565 ) ;
#696 = DIRECTION ( 'NONE',  ( -1.000000000000000000, -0.000000000000000000, -0.000000000000000000 ) ) ;
#697 = DIRECTION ( 'NONE',  ( -0.000000000000000000, -0.000000000000000000, -1.000000000000000000 ) ) ;
#698 = CIRCLE ( 'NONE', #270, 1.500000000000001332 ) ;
#699 = ORIENTED_EDGE ( 'NONE', *, *, #103, .F. ) ;
#700 = CARTESIAN_POINT ( 'NONE',  ( -21.00000000000000000, -9.000000000000001776, 34.99999999999999289 ) ) ;
#701 = EDGE_LOOP ( 'NONE', ( #121, #201, #151, #567 ) ) ;
#702 = LOCAL_TIME ( 11, 17, 27.00000000000000000, #534 ) ;
#703 = EDGE_CURVE ( 'NONE', #482, #345, #4, .T. ) ;
#704 = CARTESIAN_POINT ( 'NONE',  ( -18.00000000000000355, -5.000000000000001776, 45.00000000000000000 ) ) ;
#705 = EDGE_LOOP ( 'NONE', ( #332, #279, #616, #581 ) ) ;
#706 = CARTESIAN_POINT ( 'NONE',  ( 21.00000000000000000, -9.000000000000001776, 27.99999999999999645 ) ) ;
#707 = DESIGN_CONTEXT ( 'detailed design', #726, 'design' ) ;
#708 = DIRECTION ( 'NONE',  ( 1.000000000000000000, 0.000000000000000000, 0.000000000000000000 ) ) ;
#709 = VECTOR ( 'NONE', #378, 1000.000000000000000 ) ;
#710 = CARTESIAN_POINT ( 'NONE',  ( -21.00000000000000000, -12.00000000000000178, 45.00000000000000000 ) ) ;
#711 = DIRECTION ( 'NONE',  ( -1.000000000000000000, -0.000000000000000000, -0.000000000000000000 ) ) ;
#712 = EDGE_LOOP ( 'NONE', ( #755, #268 ) ) ;
#713 = ADVANCED_FACE ( 'NONE', ( #445 ), #165, .F. ) ;
#714 = VECTOR ( 'NONE', #105, 1000.000000000000000 ) ;
#715 = DIRECTION ( 'NONE',  ( 0.000000000000000000, 0.000000000000000000, 1.000000000000000000 ) ) ;
#716 = LINE ( 'NONE', #188, #14 ) ;
#717 = ORIENTED_EDGE ( 'NONE', *, *, #740, .T. ) ;
#718 =( GEOMETRIC_REPRESENTATION_CONTEXT ( 3 ) GLOBAL_UNCERTAINTY_ASSIGNED_CONTEXT ( ( #111 ) ) GLOBAL_UNIT_ASSIGNED_CONTEXT ( ( #335, #155, #385 ) ) REPRESENTATION_CONTEXT ( 'NONE', 'WORKASPACE' ) );
#719 = DIRECTION ( 'NONE',  ( -1.000000000000000000, 0.000000000000000000, 0.000000000000000000 ) ) ;
#720 = DIRECTION ( 'NONE',  ( 1.000000000000000000, 0.000000000000000000, 0.000000000000000000 ) ) ;
#721 = ADVANCED_FACE ( 'NONE', ( #398 ), #741, .F. ) ;
#722 = ORIENTED_EDGE ( 'NONE', *, *, #360, .F. ) ;
#723 = PERSON_AND_ORGANIZATION_ROLE ( 'design_supplier' ) ;
#724 = CC_DESIGN_PERSON_AND_ORGANIZATION_ASSIGNMENT ( #247, #723, ( #737 ) ) ;
#725 = CYLINDRICAL_SURFACE ( 'NONE', #582, 2.500000000000000444 ) ;
#726 = APPLICATION_CONTEXT ( 'configuration controlled 3d designs of mechanical parts and assemblies' ) ;
#727 = CARTESIAN_POINT ( 'NONE',  ( -21.00000000000000000, -12.00000000000000178, 2.000000000000000000 ) ) ;
#728 = APPROVAL_DATE_TIME ( #425, #348 ) ;
#729 = VECTOR ( 'NONE', #511, 1000.000000000000000 ) ;
#730 = DIRECTION ( 'NONE',  ( 0.000000000000000000, -0.000000000000000000, -1.000000000000000000 ) ) ;
#731 = ORIENTED_EDGE ( 'NONE', *, *, #99, .F. ) ;
#732 = DIRECTION ( 'NONE',  ( 0.000000000000000000, 0.000000000000000000, 1.000000000000000000 ) ) ;
#733 = CARTESIAN_POINT ( 'NONE',  ( -21.00000000000000000, -5.000000000000001776, 2.000000000000000000 ) ) ;
#734 = ORIENTED_EDGE ( 'NONE', *, *, #164, .F. ) ;
#735 = CC_DESIGN_SECURITY_CLASSIFICATION ( #415, ( #737 ) ) ;
#736 = CARTESIAN_POINT ( 'NONE',  ( -9.000000000000001776, -12.00000000000000178, 0.000000000000000000 ) ) ;
#737 = PRODUCT_DEFINITION_FORMATION_WITH_SPECIFIED_SOURCE ( 'ANY', '', #326, .NOT_KNOWN. ) ;
#738 = CARTESIAN_POINT ( 'NONE',  ( -21.00000000000000000, -12.00000000000000178, 2.000000000000000000 ) ) ;
#739 = ORIENTED_EDGE ( 'NONE', *, *, #688, .F. ) ;
#740 = EDGE_CURVE ( 'NONE', #482, #651, #37, .T. ) ;
#741 = PLANE ( 'NONE',  #254 ) ;
#742 = APPLICATION_CONTEXT ( 'configuration controlled 3d designs of mechanical parts and assemblies' ) ;
#743 = DIRECTION ( 'NONE',  ( -1.000000000000000000, -0.000000000000000000, -0.000000000000000000 ) ) ;
#744 = CIRCLE ( 'NONE', #679, 2.500000000000000444 ) ;
#745 = EDGE_LOOP ( 'NONE', ( #283, #34, #768, #257 ) ) ;
#746 = ORIENTED_EDGE ( 'NONE', *, *, #765, .F. ) ;
#747 = EDGE_CURVE ( 'NONE', #60, #157, #281, .T. ) ;
#748 = DIRECTION ( 'NONE',  ( 0.000000000000000000, 0.000000000000000000, 1.000000000000000000 ) ) ;
#749 = AXIS2_PLACEMENT_3D ( 'NONE', #48, #750, #570 ) ;
#750 = DIRECTION ( 'NONE',  ( 0.000000000000000000, 1.000000000000000000, 0.000000000000000000 ) ) ;
#751 = ORIENTED_EDGE ( 'NONE', *, *, #366, .F. ) ;
#752 = CIRCLE ( 'NONE', #414, 2.500000000000000444 ) ;
#753 = EDGE_CURVE ( 'NONE', #763, #756, #682, .T. ) ;
#754 = DIRECTION ( 'NONE',  ( -0.000000000000000000, -0.000000000000000000, -1.000000000000000000 ) ) ;
#755 = ORIENTED_EDGE ( 'NONE', *, *, #366, .T. ) ;
#756 = VERTEX_POINT ( 'NONE', #262 ) ;
#757 = ORIENTED_EDGE ( 'NONE', *, *, #295, .T. ) ;
#758 = CARTESIAN_POINT ( 'NONE',  ( -21.00000000000000000, -9.000000000000001776, 34.99999999999999289 ) ) ;
#759 = EDGE_LOOP ( 'NONE', ( #453, #717, #321, #438 ) ) ;
#760 = CARTESIAN_POINT ( 'NONE',  ( -18.00000000000000355, -5.000000000000001776, 45.00000000000000000 ) ) ;
#761 = DIRECTION ( 'NONE',  ( 0.000000000000000000, 0.000000000000000000, 1.000000000000000000 ) ) ;
#762 = EDGE_LOOP ( 'NONE', ( #223, #231, #739, #346 ) ) ;
#763 = VERTEX_POINT ( 'NONE', #506 ) ;
#764 = AXIS2_PLACEMENT_3D ( 'NONE', #153, #381, #384 ) ;
#765 = EDGE_CURVE ( 'NONE', #458, #477, #569, .T. ) ;
#766 = VECTOR ( 'NONE', #711, 1000.000000000000000 ) ;
#767 = DIRECTION ( 'NONE',  ( 0.000000000000000000, 0.000000000000000000, 1.000000000000000000 ) ) ;
#768 = ORIENTED_EDGE ( 'NONE', *, *, #1, .T. ) ;
ENDSEC;
END-ISO-10303-21;
